# xmcd
#
# Track frame offsets: 
#        150
#        19163
#        37950
#        61198
#        82213
#        100655
#        121963
#        141150
#        162105
#        181080
#
# Disc length: 2677 seconds
#
# Revision: 0
# Processed by: cddbd v1.5.2PL0 Copyright (c) Steve Scherf et al.
# Submitted via: ExactAudioCopy v0.95a5
#
DISCID=780a730a
DTITLE=村E - x洎
DYEAR=1997
DGENRE=Pop
TTITLE0=x洎
TTITLE1=AR@M
TTITLE2=I规ㄓL]
TTITLE3=Rぃゲq
TTITLE4=晾ē
TTITLE5=bGи氦H
TTITLE6=uRLo
TTITLE7=uu安安
TTITLE8=抄A
TTITLE9=酚U
EXTD=
EXTT0=
EXTT1=
EXTT2=
EXTT3=
EXTT4=
EXTT5=
EXTT6=
EXTT7=
EXTT8=
EXTT9=
PLAYORDER=
